# Blender v2.82 (sub 7) OBJ File: 'friend.blend'
# www.blender.org
mtllib entity/friend.mtl
o Cube
v 0.250000 1.800000 -0.250000
v 0.250000 0.000000 -0.250000
v 0.250000 1.800000 0.250000
v 0.250000 0.000000 0.250000
v -0.250000 1.800000 -0.250000
v -0.250000 0.000000 -0.250000
v -0.250000 1.800000 0.250000
v -0.250000 0.000000 0.250000
v 0.250000 1.350000 -0.250000
v -0.250000 1.350000 0.250000
v 0.250000 1.350000 0.250000
v -0.250000 1.350000 -0.250000
v 0.250000 1.282500 -0.250000
v 0.250000 1.282500 0.250000
v -0.250000 1.282500 -0.250000
v -0.250000 1.282500 0.250000
v 0.250000 0.064125 -0.250000
v 0.250000 0.064125 0.250000
v -0.250000 0.064125 -0.250000
v -0.250000 0.064125 0.250000
v -0.225000 0.064125 0.225000
v -0.225000 1.282500 0.225000
v 0.225000 1.282500 0.225000
v -0.225000 1.282500 -0.225000
v 0.225000 1.282500 -0.225000
v 0.225000 0.064125 -0.225000
v 0.225000 0.064125 0.225000
v -0.225000 0.064125 -0.225000
vt 0.250000 0.750000
vt 0.500000 0.750000
vt 0.500000 1.000000
vt 0.250000 1.000000
vt 0.500000 0.500000
vt 0.500000 0.750000
vt 0.250000 0.750000
vt 0.250000 0.500000
vt 0.000000 0.500000
vt 0.250000 0.500000
vt 0.250000 0.750000
vt 0.000000 0.750000
vt 0.500000 0.000000
vt 0.750000 0.000000
vt 0.750000 0.250000
vt 0.500000 0.250000
vt 0.500000 0.500000
vt 0.750000 0.500000
vt 0.750000 0.750000
vt 0.500000 0.750000
vt 0.750000 0.500000
vt 1.000000 0.500000
vt 1.000000 0.750000
vt 0.750000 0.750000
vt 0.968750 0.250000
vt 1.000000 0.250000
vt 1.000000 0.500000
vt 0.968750 0.500000
vt 0.531250 0.125000
vt 0.562500 0.125000
vt 0.562500 0.375000
vt 0.531250 0.375000
vt 0.968750 0.000000
vt 1.000000 0.000000
vt 0.500000 0.125000
vt 0.531250 0.125000
vt 0.531250 0.375000
vt 0.500000 0.375000
vt 0.250000 0.343750
vt 0.500000 0.343750
vt 0.500000 0.375000
vt 0.250000 0.375000
vt 0.812500 0.093750
vt 0.812500 0.062500
vt 0.781250 0.062500
vt 0.781250 0.093750
vt 0.750000 0.343750
vt 1.000000 0.343750
vt 1.000000 0.375000
vt 0.750000 0.375000
vt 0.812500 0.125000
vt 0.781250 0.125000
vt 0.718750 0.250000
vt 0.750000 0.250000
vt 0.750000 0.500000
vt 0.718750 0.500000
vt 0.750000 0.750000
vt 0.718750 0.750000
vt 0.718750 0.000000
vt 0.750000 0.000000
vt 0.750000 1.000000
vt 0.718750 1.000000
vt 0.093750 0.125000
vt 0.843750 0.125000
vt 0.843750 0.375000
vt 0.093750 0.375000
vt 0.093750 -0.000000
vt 0.843750 -0.000000
vt 0.843750 0.250000
vt 0.093750 0.250000
vt 0.093750 -0.000000
vt 0.843750 -0.000000
vt 0.843750 0.250000
vt 0.093750 0.250000
vt 0.093750 0.125000
vt 0.843750 0.125000
vt 0.843750 0.375000
vt 0.093750 0.375000
vt -0.000000 0.343750
vt -0.000000 0.375000
vt 0.812500 0.031250
vt 0.812500 0.000000
vt 0.781250 0.000000
vt 0.781250 0.031250
vn 0.0000 1.0000 0.0000
vn 0.0000 0.0000 1.0000
vn -1.0000 0.0000 0.0000
vn 0.0000 -1.0000 0.0000
vn 1.0000 0.0000 0.0000
vn 0.0000 0.0000 -1.0000
usemtl Material
s off
f 1/1/1 5/2/1 7/3/1 3/4/1
f 11/5/2 3/6/2 7/7/2 10/8/2
f 10/9/3 7/10/3 5/11/3 12/12/3
f 6/13/4 2/14/4 4/15/4 8/16/4
f 9/17/5 1/18/5 3/19/5 11/20/5
f 12/21/6 5/22/6 1/23/6 9/24/6
f 15/25/6 12/26/6 9/27/6 13/28/6
f 13/29/5 9/30/5 11/31/5 14/32/5
f 16/33/3 10/34/3 12/26/3 15/25/3
f 14/35/2 11/36/2 10/37/2 16/38/2
f 15/39/4 13/40/4 25/41/4 24/42/4
f 18/43/1 17/44/1 26/45/1 27/46/1
f 14/47/4 16/48/4 22/49/4 23/50/4
f 20/51/1 18/43/1 27/46/1 21/52/1
f 6/53/6 19/54/6 17/55/6 2/56/6
f 2/56/5 17/55/5 18/57/5 4/58/5
f 8/59/3 20/60/3 19/54/3 6/53/3
f 4/58/2 18/57/2 20/61/2 8/62/2
f 27/63/2 23/64/2 22/65/2 21/66/2
f 21/67/3 22/68/3 24/69/3 28/70/3
f 26/71/5 25/72/5 23/73/5 27/74/5
f 28/75/6 24/76/6 25/77/6 26/78/6
f 16/79/4 15/39/4 24/42/4 22/80/4
f 19/81/1 20/82/1 21/83/1 28/84/1
f 17/44/1 19/81/1 28/84/1 26/45/1
f 13/40/4 14/47/4 23/50/4 25/41/4
